<svg xmlns="http://www.w3.org/2000/svg" width="360" height="360"><rect x="0" y="0" width="14" height="14" rx="4" fill="#3a3f3c" fill-opacity="0.12"/><rect x="0" y="18" width="14" height="14" rx="4" fill="#3a3f3c" fill-opacity="0.08"/><rect x="0" y="36" width="14" height="14" rx="4" fill="#3a3f3c" fill-opacity="0.21"/><rect x="0" y="54" width="14" height="14" rx="4" fill="#3a3f3c" fill-opacity="0.28"/><rect x="0" y="72" width="14" height="14" rx="4" fill="#3a3f3c" fill-opacity="0.25"/><rect x="0" y="90" width="14" height="14" rx="4" fill="#3a3f3c" fill-opacity="0.09"/><rect x="0" y="108" width="14" height="14" rx="4" fill="#3a3f3c" fill-opacity="0.42"/><rect x="0" y="126" width="14" height="14" rx="4" fill="#3a3f3c" fill-opacity="0.15"/><rect x="0" y="144" width="14" height="14" rx="4" fill="#3a3f3c" fill-opacity="0.48"/><rect x="0" y="162" width="14" height="14" rx="4" fill="#3a3f3c" fill-opacity="0.23"/><rect x="0" y="180" width="14" height="14" rx="4" fill="#4ade80" fill-opacity="0.49"/><rect x="0" y="198" width="14" height="14" rx="4" fill="#3a3f3c" fill-opacity="0.24"/><rect x="0" y="216" width="14" height="14" rx="4" fill="#3a3f3c" fill-opacity="0.31"/><rect x="0" y="234" width="14" height="14" rx="4" fill="#3a3f3c" fill-opacity="0.36"/><rect x="0" y="252" width="14" height="14" rx="4" fill="#3a3f3c" fill-opacity="0.31"/><rect x="0" y="270" width="14" height="14" rx="4" fill="#3a3f3c" fill-opacity="0.09"/><rect x="0" y="288" width="14" height="14" rx="4" fill="#3a3f3c" fill-opacity="0.3"/><rect x="0" y="306" width="14" height="14" rx="4" fill="#3a3f3c" fill-opacity="0.27"/><rect x="0" y="324" width="14" height="14" rx="4" fill="#3a3f3c" fill-opacity="0.4"/><rect x="0" y="342" width="14" height="14" rx="4" fill="#3a3f3c" fill-opacity="0.47"/><rect x="18" y="0" width="14" height="14" rx="4" fill="#3a3f3c" fill-opacity="0.16"/><rect x="18" y="18" width="14" height="14" rx="4" fill="#3a3f3c" fill-opacity="0.4"/><rect x="18" y="36" width="14" height="14" rx="4" fill="#3a3f3c" fill-opacity="0.19"/><rect x="18" y="54" width="14" height="14" rx="4" fill="#3a3f3c" fill-opacity="0.2"/><rect x="18" y="72" width="14" height="14" rx="4" fill="#3a3f3c" fill-opacity="0.32"/><rect x="18" y="90" width="14" height="14" rx="4" fill="#3a3f3c" fill-opacity="0.28"/><rect x="18" y="108" width="14" height="14" rx="4" fill="#3a3f3c" fill-opacity="0.2"/><rect x="18" y="126" width="14" height="14" rx="4" fill="#34d399" fill-opacity="0.36"/><rect x="18" y="144" width="14" height="14" rx="4" fill="#3a3f3c" fill-opacity="0.39"/><rect x="18" y="162" width="14" height="14" rx="4" fill="#3a3f3c" fill-opacity="0.44"/><rect x="18" y="180" width="14" height="14" rx="4" fill="#3a3f3c" fill-opacity="0.36"/><rect x="18" y="198" width="14" height="14" rx="4" fill="#3a3f3c" fill-opacity="0.31"/><rect x="18" y="216" width="14" height="14" rx="4" fill="#3a3f3c" fill-opacity="0.43"/><rect x="18" y="234" width="14" height="14" rx="4" fill="#34d399" fill-opacity="0.52"/><rect x="18" y="252" width="14" height="14" rx="4" fill="#3a3f3c" fill-opacity="0.38"/><rect x="18" y="270" width="14" height="14" rx="4" fill="#3a3f3c" fill-opacity="0.31"/><rect x="18" y="288" width="14" height="14" rx="4" fill="#3a3f3c" fill-opacity="0.25"/><rect x="18" y="306" width="14" height="14" rx="4" fill="#3a3f3c" fill-opacity="0.45"/><rect x="18" y="324" width="14" height="14" rx="4" fill="#3a3f3c" fill-opacity="0.47"/><rect x="18" y="342" width="14" height="14" rx="4" fill="#3a3f3c" fill-opacity="0.32"/><rect x="36" y="0" width="14" height="14" rx="4" fill="#3a3f3c" fill-opacity="0.15"/><rect x="36" y="18" width="14" height="14" rx="4" fill="#3a3f3c" fill-opacity="0.38"/><rect x="36" y="36" width="14" height="14" rx="4" fill="#3a3f3c" fill-opacity="0.46"/><rect x="36" y="54" width="14" height="14" rx="4" fill="#3a3f3c" fill-opacity="0.12"/><rect x="36" y="72" width="14" height="14" rx="4" fill="#3a3f3c" fill-opacity="0.18"/><rect x="36" y="90" width="14" height="14" rx="4" fill="#3a3f3c" fill-opacity="0.24"/><rect x="36" y="108" width="14" height="14" rx="4" fill="#3a3f3c" fill-opacity="0.37"/><rect x="36" y="126" width="14" height="14" rx="4" fill="#a7f3d0" fill-opacity="0.57"/><rect x="36" y="144" width="14" height="14" rx="4" fill="#4ade80" fill-opacity="0.37"/><rect x="36" y="162" width="14" height="14" rx="4" fill="#3a3f3c" fill-opacity="0.35"/><rect x="36" y="180" width="14" height="14" rx="4" fill="#3a3f3c" fill-opacity="0.42"/><rect x="36" y="198" width="14" height="14" rx="4" fill="#3a3f3c" fill-opacity="0.18"/><rect x="36" y="216" width="14" height="14" rx="4" fill="#3a3f3c" fill-opacity="0.29"/><rect x="36" y="234" width="14" height="14" rx="4" fill="#3a3f3c" fill-opacity="0.19"/><rect x="36" y="252" width="14" height="14" rx="4" fill="#3a3f3c" fill-opacity="0.44"/><rect x="36" y="270" width="14" height="14" rx="4" fill="#a7f3d0" fill-opacity="0.52"/><rect x="36" y="288" width="14" height="14" rx="4" fill="#3a3f3c" fill-opacity="0.45"/><rect x="36" y="306" width="14" height="14" rx="4" fill="#3a3f3c" fill-opacity="0.44"/><rect x="36" y="324" width="14" height="14" rx="4" fill="#3a3f3c" fill-opacity="0.23"/><rect x="36" y="342" width="14" height="14" rx="4" fill="#3a3f3c" fill-opacity="0.1"/><rect x="54" y="0" width="14" height="14" rx="4" fill="#3a3f3c" fill-opacity="0.08"/><rect x="54" y="18" width="14" height="14" rx="4" fill="#3a3f3c" fill-opacity="0.14"/><rect x="54" y="36" width="14" height="14" rx="4" fill="#3a3f3c" fill-opacity="0.2"/><rect x="54" y="54" width="14" height="14" rx="4" fill="#3a3f3c" fill-opacity="0.05"/><rect x="54" y="72" width="14" height="14" rx="4" fill="#3a3f3c" fill-opacity="0.1"/><rect x="54" y="90" width="14" height="14" rx="4" fill="#3a3f3c" fill-opacity="0.06"/><rect x="54" y="108" width="14" height="14" rx="4" fill="#3a3f3c" fill-opacity="0.33"/><rect x="54" y="126" width="14" height="14" rx="4" fill="#3a3f3c" fill-opacity="0.16"/><rect x="54" y="144" width="14" height="14" rx="4" fill="#3a3f3c" fill-opacity="0.21"/><rect x="54" y="162" width="14" height="14" rx="4" fill="#3a3f3c" fill-opacity="0.43"/><rect x="54" y="180" width="14" height="14" rx="4" fill="#34d399" fill-opacity="0.47"/><rect x="54" y="198" width="14" height="14" rx="4" fill="#3a3f3c" fill-opacity="0.11"/><rect x="54" y="216" width="14" height="14" rx="4" fill="#3a3f3c" fill-opacity="0.38"/><rect x="54" y="234" width="14" height="14" rx="4" fill="#3a3f3c" fill-opacity="0.36"/><rect x="54" y="252" width="14" height="14" rx="4" fill="#3a3f3c" fill-opacity="0.14"/><rect x="54" y="270" width="14" height="14" rx="4" fill="#34d399" fill-opacity="0.39"/><rect x="54" y="288" width="14" height="14" rx="4" fill="#3a3f3c" fill-opacity="0.06"/><rect x="54" y="306" width="14" height="14" rx="4" fill="#3a3f3c" fill-opacity="0.49"/><rect x="54" y="324" width="14" height="14" rx="4" fill="#3a3f3c" fill-opacity="0.36"/><rect x="54" y="342" width="14" height="14" rx="4" fill="#3a3f3c" fill-opacity="0.22"/><rect x="72" y="0" width="14" height="14" rx="4" fill="#3a3f3c" fill-opacity="0.4"/><rect x="72" y="18" width="14" height="14" rx="4" fill="#3a3f3c" fill-opacity="0.4"/><rect x="72" y="36" width="14" height="14" rx="4" fill="#3a3f3c" fill-opacity="0.15"/><rect x="72" y="54" width="14" height="14" rx="4" fill="#3a3f3c" fill-opacity="0.49"/><rect x="72" y="72" width="14" height="14" rx="4" fill="#3a3f3c" fill-opacity="0.41"/><rect x="72" y="90" width="14" height="14" rx="4" fill="#3a3f3c" fill-opacity="0.38"/><rect x="72" y="108" width="14" height="14" rx="4" fill="#3a3f3c" fill-opacity="0.28"/><rect x="72" y="126" width="14" height="14" rx="4" fill="#3a3f3c" fill-opacity="0.06"/><rect x="72" y="144" width="14" height="14" rx="4" fill="#3a3f3c" fill-opacity="0.18"/><rect x="72" y="162" width="14" height="14" rx="4" fill="#3a3f3c" fill-opacity="0.36"/><rect x="72" y="180" width="14" height="14" rx="4" fill="#34d399" fill-opacity="0.55"/><rect x="72" y="198" width="14" height="14" rx="4" fill="#3a3f3c" fill-opacity="0.21"/><rect x="72" y="216" width="14" height="14" rx="4" fill="#4ade80" fill-opacity="0.41"/><rect x="72" y="234" width="14" height="14" rx="4" fill="#3a3f3c" fill-opacity="0.14"/><rect x="72" y="252" width="14" height="14" rx="4" fill="#3a3f3c" fill-opacity="0.33"/><rect x="72" y="270" width="14" height="14" rx="4" fill="#3a3f3c" fill-opacity="0.43"/><rect x="72" y="288" width="14" height="14" rx="4" fill="#3a3f3c" fill-opacity="0.34"/><rect x="72" y="306" width="14" height="14" rx="4" fill="#3a3f3c" fill-opacity="0.09"/><rect x="72" y="324" width="14" height="14" rx="4" fill="#3a3f3c" fill-opacity="0.46"/><rect x="72" y="342" width="14" height="14" rx="4" fill="#3a3f3c" fill-opacity="0.39"/><rect x="90" y="0" width="14" height="14" rx="4" fill="#3a3f3c" fill-opacity="0.13"/><rect x="90" y="18" width="14" height="14" rx="4" fill="#3a3f3c" fill-opacity="0.2"/><rect x="90" y="36" width="14" height="14" rx="4" fill="#3a3f3c" fill-opacity="0.49"/><rect x="90" y="54" width="14" height="14" rx="4" fill="#3a3f3c" fill-opacity="0.23"/><rect x="90" y="72" width="14" height="14" rx="4" fill="#a7f3d0" fill-opacity="0.39"/><rect x="90" y="90" width="14" height="14" rx="4" fill="#4ade80" fill-opacity="0.39"/><rect x="90" y="108" width="14" height="14" rx="4" fill="#3a3f3c" fill-opacity="0.41"/><rect x="90" y="126" width="14" height="14" rx="4" fill="#3a3f3c" fill-opacity="0.42"/><rect x="90" y="144" width="14" height="14" rx="4" fill="#a7f3d0" fill-opacity="0.58"/><rect x="90" y="162" width="14" height="14" rx="4" fill="#3a3f3c" fill-opacity="0.3"/><rect x="90" y="180" width="14" height="14" rx="4" fill="#3a3f3c" fill-opacity="0.41"/><rect x="90" y="198" width="14" height="14" rx="4" fill="#3a3f3c" fill-opacity="0.1"/><rect x="90" y="216" width="14" height="14" rx="4" fill="#3a3f3c" fill-opacity="0.11"/><rect x="90" y="234" width="14" height="14" rx="4" fill="#4ade80" fill-opacity="0.56"/><rect x="90" y="252" width="14" height="14" rx="4" fill="#3a3f3c" fill-opacity="0.16"/><rect x="90" y="270" width="14" height="14" rx="4" fill="#3a3f3c" fill-opacity="0.16"/><rect x="90" y="288" width="14" height="14" rx="4" fill="#3a3f3c" fill-opacity="0.17"/><rect x="90" y="306" width="14" height="14" rx="4" fill="#3a3f3c" fill-opacity="0.11"/><rect x="90" y="324" width="14" height="14" rx="4" fill="#3a3f3c" fill-opacity="0.21"/><rect x="90" y="342" width="14" height="14" rx="4" fill="#3a3f3c" fill-opacity="0.31"/><rect x="108" y="0" width="14" height="14" rx="4" fill="#3a3f3c" fill-opacity="0.24"/><rect x="108" y="18" width="14" height="14" rx="4" fill="#3a3f3c" fill-opacity="0.28"/><rect x="108" y="36" width="14" height="14" rx="4" fill="#3a3f3c" fill-opacity="0.29"/><rect x="108" y="54" width="14" height="14" rx="4" fill="#3a3f3c" fill-opacity="0.25"/><rect x="108" y="72" width="14" height="14" rx="4" fill="#3a3f3c" fill-opacity="0.05"/><rect x="108" y="90" width="14" height="14" rx="4" fill="#3a3f3c" fill-opacity="0.13"/><rect x="108" y="108" width="14" height="14" rx="4" fill="#3a3f3c" fill-opacity="0.38"/><rect x="108" y="126" width="14" height="14" rx="4" fill="#3a3f3c" fill-opacity="0.2"/><rect x="108" y="144" width="14" height="14" rx="4" fill="#3a3f3c" fill-opacity="0.3"/><rect x="108" y="162" width="14" height="14" rx="4" fill="#3a3f3c" fill-opacity="0.1"/><rect x="108" y="180" width="14" height="14" rx="4" fill="#3a3f3c" fill-opacity="0.16"/><rect x="108" y="198" width="14" height="14" rx="4" fill="#3a3f3c" fill-opacity="0.4"/><rect x="108" y="216" width="14" height="14" rx="4" fill="#3a3f3c" fill-opacity="0.3"/><rect x="108" y="234" width="14" height="14" rx="4" fill="#3a3f3c" fill-opacity="0.46"/><rect x="108" y="252" width="14" height="14" rx="4" fill="#3a3f3c" fill-opacity="0.33"/><rect x="108" y="270" width="14" height="14" rx="4" fill="#3a3f3c" fill-opacity="0.28"/><rect x="108" y="288" width="14" height="14" rx="4" fill="#3a3f3c" fill-opacity="0.25"/><rect x="108" y="306" width="14" height="14" rx="4" fill="#3a3f3c" fill-opacity="0.27"/><rect x="108" y="324" width="14" height="14" rx="4" fill="#a7f3d0" fill-opacity="0.48"/><rect x="108" y="342" width="14" height="14" rx="4" fill="#3a3f3c" fill-opacity="0.47"/><rect x="126" y="0" width="14" height="14" rx="4" fill="#3a3f3c" fill-opacity="0.45"/><rect x="126" y="18" width="14" height="14" rx="4" fill="#3a3f3c" fill-opacity="0.25"/><rect x="126" y="36" width="14" height="14" rx="4" fill="#3a3f3c" fill-opacity="0.23"/><rect x="126" y="54" width="14" height="14" rx="4" fill="#3a3f3c" fill-opacity="0.35"/><rect x="126" y="72" width="14" height="14" rx="4" fill="#3a3f3c" fill-opacity="0.15"/><rect x="126" y="90" width="14" height="14" rx="4" fill="#3a3f3c" fill-opacity="0.11"/><rect x="126" y="108" width="14" height="14" rx="4" fill="#3a3f3c" fill-opacity="0.47"/><rect x="126" y="126" width="14" height="14" rx="4" fill="#3a3f3c" fill-opacity="0.21"/><rect x="126" y="144" width="14" height="14" rx="4" fill="#3a3f3c" fill-opacity="0.11"/><rect x="126" y="162" width="14" height="14" rx="4" fill="#3a3f3c" fill-opacity="0.39"/><rect x="126" y="180" width="14" height="14" rx="4" fill="#3a3f3c" fill-opacity="0.45"/><rect x="126" y="198" width="14" height="14" rx="4" fill="#3a3f3c" fill-opacity="0.35"/><rect x="126" y="216" width="14" height="14" rx="4" fill="#3a3f3c" fill-opacity="0.37"/><rect x="126" y="234" width="14" height="14" rx="4" fill="#34d399" fill-opacity="0.43"/><rect x="126" y="252" width="14" height="14" rx="4" fill="#3a3f3c" fill-opacity="0.19"/><rect x="126" y="270" width="14" height="14" rx="4" fill="#3a3f3c" fill-opacity="0.06"/><rect x="126" y="288" width="14" height="14" rx="4" fill="#3a3f3c" fill-opacity="0.25"/><rect x="126" y="306" width="14" height="14" rx="4" fill="#3a3f3c" fill-opacity="0.2"/><rect x="126" y="324" width="14" height="14" rx="4" fill="#3a3f3c" fill-opacity="0.28"/><rect x="126" y="342" width="14" height="14" rx="4" fill="#3a3f3c" fill-opacity="0.49"/><rect x="144" y="0" width="14" height="14" rx="4" fill="#3a3f3c" fill-opacity="0.49"/><rect x="144" y="18" width="14" height="14" rx="4" fill="#3a3f3c" fill-opacity="0.17"/><rect x="144" y="36" width="14" height="14" rx="4" fill="#3a3f3c" fill-opacity="0.4"/><rect x="144" y="54" width="14" height="14" rx="4" fill="#3a3f3c" fill-opacity="0.11"/><rect x="144" y="72" width="14" height="14" rx="4" fill="#3a3f3c" fill-opacity="0.46"/><rect x="144" y="90" width="14" height="14" rx="4" fill="#3a3f3c" fill-opacity="0.17"/><rect x="144" y="108" width="14" height="14" rx="4" fill="#3a3f3c" fill-opacity="0.46"/><rect x="144" y="126" width="14" height="14" rx="4" fill="#3a3f3c" fill-opacity="0.37"/><rect x="144" y="144" width="14" height="14" rx="4" fill="#3a3f3c" fill-opacity="0.08"/><rect x="144" y="162" width="14" height="14" rx="4" fill="#3a3f3c" fill-opacity="0.24"/><rect x="144" y="180" width="14" height="14" rx="4" fill="#3a3f3c" fill-opacity="0.47"/><rect x="144" y="198" width="14" height="14" rx="4" fill="#3a3f3c" fill-opacity="0.41"/><rect x="144" y="216" width="14" height="14" rx="4" fill="#3a3f3c" fill-opacity="0.44"/><rect x="144" y="234" width="14" height="14" rx="4" fill="#3a3f3c" fill-opacity="0.44"/><rect x="144" y="252" width="14" height="14" rx="4" fill="#3a3f3c" fill-opacity="0.2"/><rect x="144" y="270" width="14" height="14" rx="4" fill="#3a3f3c" fill-opacity="0.47"/><rect x="144" y="288" width="14" height="14" rx="4" fill="#3a3f3c" fill-opacity="0.11"/><rect x="144" y="306" width="14" height="14" rx="4" fill="#3a3f3c" fill-opacity="0.16"/><rect x="144" y="324" width="14" height="14" rx="4" fill="#3a3f3c" fill-opacity="0.12"/><rect x="144" y="342" width="14" height="14" rx="4" fill="#3a3f3c" fill-opacity="0.14"/><rect x="162" y="0" width="14" height="14" rx="4" fill="#3a3f3c" fill-opacity="0.19"/><rect x="162" y="18" width="14" height="14" rx="4" fill="#3a3f3c" fill-opacity="0.18"/><rect x="162" y="36" width="14" height="14" rx="4" fill="#3a3f3c" fill-opacity="0.13"/><rect x="162" y="54" width="14" height="14" rx="4" fill="#3a3f3c" fill-opacity="0.06"/><rect x="162" y="72" width="14" height="14" rx="4" fill="#3a3f3c" fill-opacity="0.06"/><rect x="162" y="90" width="14" height="14" rx="4" fill="#3a3f3c" fill-opacity="0.3"/><rect x="162" y="108" width="14" height="14" rx="4" fill="#3a3f3c" fill-opacity="0.26"/><rect x="162" y="126" width="14" height="14" rx="4" fill="#4ade80" fill-opacity="0.51"/><rect x="162" y="144" width="14" height="14" rx="4" fill="#3a3f3c" fill-opacity="0.35"/><rect x="162" y="162" width="14" height="14" rx="4" fill="#3a3f3c" fill-opacity="0.45"/><rect x="162" y="180" width="14" height="14" rx="4" fill="#34d399" fill-opacity="0.52"/><rect x="162" y="198" width="14" height="14" rx="4" fill="#34d399" fill-opacity="0.4"/><rect x="162" y="216" width="14" height="14" rx="4" fill="#3a3f3c" fill-opacity="0.38"/><rect x="162" y="234" width="14" height="14" rx="4" fill="#3a3f3c" fill-opacity="0.5"/><rect x="162" y="252" width="14" height="14" rx="4" fill="#4ade80" fill-opacity="0.35"/><rect x="162" y="270" width="14" height="14" rx="4" fill="#3a3f3c" fill-opacity="0.45"/><rect x="162" y="288" width="14" height="14" rx="4" fill="#3a3f3c" fill-opacity="0.07"/><rect x="162" y="306" width="14" height="14" rx="4" fill="#3a3f3c" fill-opacity="0.22"/><rect x="162" y="324" width="14" height="14" rx="4" fill="#3a3f3c" fill-opacity="0.49"/><rect x="162" y="342" width="14" height="14" rx="4" fill="#3a3f3c" fill-opacity="0.36"/><rect x="180" y="0" width="14" height="14" rx="4" fill="#3a3f3c" fill-opacity="0.13"/><rect x="180" y="18" width="14" height="14" rx="4" fill="#3a3f3c" fill-opacity="0.05"/><rect x="180" y="36" width="14" height="14" rx="4" fill="#3a3f3c" fill-opacity="0.2"/><rect x="180" y="54" width="14" height="14" rx="4" fill="#34d399" fill-opacity="0.41"/><rect x="180" y="72" width="14" height="14" rx="4" fill="#34d399" fill-opacity="0.4"/><rect x="180" y="90" width="14" height="14" rx="4" fill="#3a3f3c" fill-opacity="0.2"/><rect x="180" y="108" width="14" height="14" rx="4" fill="#3a3f3c" fill-opacity="0.18"/><rect x="180" y="126" width="14" height="14" rx="4" fill="#3a3f3c" fill-opacity="0.16"/><rect x="180" y="144" width="14" height="14" rx="4" fill="#3a3f3c" fill-opacity="0.09"/><rect x="180" y="162" width="14" height="14" rx="4" fill="#3a3f3c" fill-opacity="0.11"/><rect x="180" y="180" width="14" height="14" rx="4" fill="#3a3f3c" fill-opacity="0.23"/><rect x="180" y="198" width="14" height="14" rx="4" fill="#3a3f3c" fill-opacity="0.33"/><rect x="180" y="216" width="14" height="14" rx="4" fill="#3a3f3c" fill-opacity="0.48"/><rect x="180" y="234" width="14" height="14" rx="4" fill="#3a3f3c" fill-opacity="0.12"/><rect x="180" y="252" width="14" height="14" rx="4" fill="#3a3f3c" fill-opacity="0.4"/><rect x="180" y="270" width="14" height="14" rx="4" fill="#3a3f3c" fill-opacity="0.39"/><rect x="180" y="288" width="14" height="14" rx="4" fill="#3a3f3c" fill-opacity="0.27"/><rect x="180" y="306" width="14" height="14" rx="4" fill="#3a3f3c" fill-opacity="0.33"/><rect x="180" y="324" width="14" height="14" rx="4" fill="#3a3f3c" fill-opacity="0.42"/><rect x="180" y="342" width="14" height="14" rx="4" fill="#3a3f3c" fill-opacity="0.28"/><rect x="198" y="0" width="14" height="14" rx="4" fill="#3a3f3c" fill-opacity="0.37"/><rect x="198" y="18" width="14" height="14" rx="4" fill="#3a3f3c" fill-opacity="0.46"/><rect x="198" y="36" width="14" height="14" rx="4" fill="#3a3f3c" fill-opacity="0.31"/><rect x="198" y="54" width="14" height="14" rx="4" fill="#3a3f3c" fill-opacity="0.06"/><rect x="198" y="72" width="14" height="14" rx="4" fill="#3a3f3c" fill-opacity="0.41"/><rect x="198" y="90" width="14" height="14" rx="4" fill="#3a3f3c" fill-opacity="0.48"/><rect x="198" y="108" width="14" height="14" rx="4" fill="#3a3f3c" fill-opacity="0.09"/><rect x="198" y="126" width="14" height="14" rx="4" fill="#3a3f3c" fill-opacity="0.34"/><rect x="198" y="144" width="14" height="14" rx="4" fill="#34d399" fill-opacity="0.56"/><rect x="198" y="162" width="14" height="14" rx="4" fill="#3a3f3c" fill-opacity="0.33"/><rect x="198" y="180" width="14" height="14" rx="4" fill="#3a3f3c" fill-opacity="0.36"/><rect x="198" y="198" width="14" height="14" rx="4" fill="#3a3f3c" fill-opacity="0.05"/><rect x="198" y="216" width="14" height="14" rx="4" fill="#3a3f3c" fill-opacity="0.39"/><rect x="198" y="234" width="14" height="14" rx="4" fill="#3a3f3c" fill-opacity="0.29"/><rect x="198" y="252" width="14" height="14" rx="4" fill="#3a3f3c" fill-opacity="0.08"/><rect x="198" y="270" width="14" height="14" rx="4" fill="#3a3f3c" fill-opacity="0.16"/><rect x="198" y="288" width="14" height="14" rx="4" fill="#3a3f3c" fill-opacity="0.17"/><rect x="198" y="306" width="14" height="14" rx="4" fill="#3a3f3c" fill-opacity="0.14"/><rect x="198" y="324" width="14" height="14" rx="4" fill="#3a3f3c" fill-opacity="0.49"/><rect x="198" y="342" width="14" height="14" rx="4" fill="#3a3f3c" fill-opacity="0.22"/><rect x="216" y="0" width="14" height="14" rx="4" fill="#3a3f3c" fill-opacity="0.36"/><rect x="216" y="18" width="14" height="14" rx="4" fill="#3a3f3c" fill-opacity="0.33"/><rect x="216" y="36" width="14" height="14" rx="4" fill="#3a3f3c" fill-opacity="0.08"/><rect x="216" y="54" width="14" height="14" rx="4" fill="#3a3f3c" fill-opacity="0.16"/><rect x="216" y="72" width="14" height="14" rx="4" fill="#3a3f3c" fill-opacity="0.19"/><rect x="216" y="90" width="14" height="14" rx="4" fill="#3a3f3c" fill-opacity="0.06"/><rect x="216" y="108" width="14" height="14" rx="4" fill="#3a3f3c" fill-opacity="0.17"/><rect x="216" y="126" width="14" height="14" rx="4" fill="#3a3f3c" fill-opacity="0.36"/><rect x="216" y="144" width="14" height="14" rx="4" fill="#3a3f3c" fill-opacity="0.18"/><rect x="216" y="162" width="14" height="14" rx="4" fill="#3a3f3c" fill-opacity="0.26"/><rect x="216" y="180" width="14" height="14" rx="4" fill="#3a3f3c" fill-opacity="0.1"/><rect x="216" y="198" width="14" height="14" rx="4" fill="#3a3f3c" fill-opacity="0.14"/><rect x="216" y="216" width="14" height="14" rx="4" fill="#34d399" fill-opacity="0.35"/><rect x="216" y="234" width="14" height="14" rx="4" fill="#3a3f3c" fill-opacity="0.42"/><rect x="216" y="252" width="14" height="14" rx="4" fill="#34d399" fill-opacity="0.6"/><rect x="216" y="270" width="14" height="14" rx="4" fill="#3a3f3c" fill-opacity="0.46"/><rect x="216" y="288" width="14" height="14" rx="4" fill="#4ade80" fill-opacity="0.5"/><rect x="216" y="306" width="14" height="14" rx="4" fill="#3a3f3c" fill-opacity="0.29"/><rect x="216" y="324" width="14" height="14" rx="4" fill="#4ade80" fill-opacity="0.5"/><rect x="216" y="342" width="14" height="14" rx="4" fill="#3a3f3c" fill-opacity="0.18"/><rect x="234" y="0" width="14" height="14" rx="4" fill="#3a3f3c" fill-opacity="0.21"/><rect x="234" y="18" width="14" height="14" rx="4" fill="#3a3f3c" fill-opacity="0.44"/><rect x="234" y="36" width="14" height="14" rx="4" fill="#3a3f3c" fill-opacity="0.12"/><rect x="234" y="54" width="14" height="14" rx="4" fill="#a7f3d0" fill-opacity="0.46"/><rect x="234" y="72" width="14" height="14" rx="4" fill="#3a3f3c" fill-opacity="0.11"/><rect x="234" y="90" width="14" height="14" rx="4" fill="#3a3f3c" fill-opacity="0.19"/><rect x="234" y="108" width="14" height="14" rx="4" fill="#3a3f3c" fill-opacity="0.05"/><rect x="234" y="126" width="14" height="14" rx="4" fill="#3a3f3c" fill-opacity="0.43"/><rect x="234" y="144" width="14" height="14" rx="4" fill="#3a3f3c" fill-opacity="0.47"/><rect x="234" y="162" width="14" height="14" rx="4" fill="#3a3f3c" fill-opacity="0.46"/><rect x="234" y="180" width="14" height="14" rx="4" fill="#3a3f3c" fill-opacity="0.22"/><rect x="234" y="198" width="14" height="14" rx="4" fill="#3a3f3c" fill-opacity="0.5"/><rect x="234" y="216" width="14" height="14" rx="4" fill="#3a3f3c" fill-opacity="0.21"/><rect x="234" y="234" width="14" height="14" rx="4" fill="#3a3f3c" fill-opacity="0.17"/><rect x="234" y="252" width="14" height="14" rx="4" fill="#3a3f3c" fill-opacity="0.1"/><rect x="234" y="270" width="14" height="14" rx="4" fill="#3a3f3c" fill-opacity="0.18"/><rect x="234" y="288" width="14" height="14" rx="4" fill="#4ade80" fill-opacity="0.59"/><rect x="234" y="306" width="14" height="14" rx="4" fill="#3a3f3c" fill-opacity="0.19"/><rect x="234" y="324" width="14" height="14" rx="4" fill="#3a3f3c" fill-opacity="0.4"/><rect x="234" y="342" width="14" height="14" rx="4" fill="#3a3f3c" fill-opacity="0.06"/><rect x="252" y="0" width="14" height="14" rx="4" fill="#3a3f3c" fill-opacity="0.23"/><rect x="252" y="18" width="14" height="14" rx="4" fill="#3a3f3c" fill-opacity="0.3"/><rect x="252" y="36" width="14" height="14" rx="4" fill="#3a3f3c" fill-opacity="0.09"/><rect x="252" y="54" width="14" height="14" rx="4" fill="#34d399" fill-opacity="0.46"/><rect x="252" y="72" width="14" height="14" rx="4" fill="#3a3f3c" fill-opacity="0.34"/><rect x="252" y="90" width="14" height="14" rx="4" fill="#3a3f3c" fill-opacity="0.07"/><rect x="252" y="108" width="14" height="14" rx="4" fill="#3a3f3c" fill-opacity="0.11"/><rect x="252" y="126" width="14" height="14" rx="4" fill="#3a3f3c" fill-opacity="0.2"/><rect x="252" y="144" width="14" height="14" rx="4" fill="#3a3f3c" fill-opacity="0.38"/><rect x="252" y="162" width="14" height="14" rx="4" fill="#34d399" fill-opacity="0.45"/><rect x="252" y="180" width="14" height="14" rx="4" fill="#3a3f3c" fill-opacity="0.27"/><rect x="252" y="198" width="14" height="14" rx="4" fill="#3a3f3c" fill-opacity="0.1"/><rect x="252" y="216" width="14" height="14" rx="4" fill="#3a3f3c" fill-opacity="0.08"/><rect x="252" y="234" width="14" height="14" rx="4" fill="#3a3f3c" fill-opacity="0.42"/><rect x="252" y="252" width="14" height="14" rx="4" fill="#3a3f3c" fill-opacity="0.25"/><rect x="252" y="270" width="14" height="14" rx="4" fill="#3a3f3c" fill-opacity="0.39"/><rect x="252" y="288" width="14" height="14" rx="4" fill="#3a3f3c" fill-opacity="0.3"/><rect x="252" y="306" width="14" height="14" rx="4" fill="#3a3f3c" fill-opacity="0.13"/><rect x="252" y="324" width="14" height="14" rx="4" fill="#3a3f3c" fill-opacity="0.19"/><rect x="252" y="342" width="14" height="14" rx="4" fill="#3a3f3c" fill-opacity="0.41"/><rect x="270" y="0" width="14" height="14" rx="4" fill="#3a3f3c" fill-opacity="0.06"/><rect x="270" y="18" width="14" height="14" rx="4" fill="#3a3f3c" fill-opacity="0.22"/><rect x="270" y="36" width="14" height="14" rx="4" fill="#3a3f3c" fill-opacity="0.14"/><rect x="270" y="54" width="14" height="14" rx="4" fill="#3a3f3c" fill-opacity="0.39"/><rect x="270" y="72" width="14" height="14" rx="4" fill="#3a3f3c" fill-opacity="0.31"/><rect x="270" y="90" width="14" height="14" rx="4" fill="#3a3f3c" fill-opacity="0.36"/><rect x="270" y="108" width="14" height="14" rx="4" fill="#3a3f3c" fill-opacity="0.41"/><rect x="270" y="126" width="14" height="14" rx="4" fill="#3a3f3c" fill-opacity="0.09"/><rect x="270" y="144" width="14" height="14" rx="4" fill="#3a3f3c" fill-opacity="0.22"/><rect x="270" y="162" width="14" height="14" rx="4" fill="#3a3f3c" fill-opacity="0.24"/><rect x="270" y="180" width="14" height="14" rx="4" fill="#3a3f3c" fill-opacity="0.42"/><rect x="270" y="198" width="14" height="14" rx="4" fill="#4ade80" fill-opacity="0.36"/><rect x="270" y="216" width="14" height="14" rx="4" fill="#3a3f3c" fill-opacity="0.45"/><rect x="270" y="234" width="14" height="14" rx="4" fill="#3a3f3c" fill-opacity="0.31"/><rect x="270" y="252" width="14" height="14" rx="4" fill="#3a3f3c" fill-opacity="0.23"/><rect x="270" y="270" width="14" height="14" rx="4" fill="#3a3f3c" fill-opacity="0.42"/><rect x="270" y="288" width="14" height="14" rx="4" fill="#3a3f3c" fill-opacity="0.49"/><rect x="270" y="306" width="14" height="14" rx="4" fill="#3a3f3c" fill-opacity="0.1"/><rect x="270" y="324" width="14" height="14" rx="4" fill="#3a3f3c" fill-opacity="0.29"/><rect x="270" y="342" width="14" height="14" rx="4" fill="#3a3f3c" fill-opacity="0.47"/><rect x="288" y="0" width="14" height="14" rx="4" fill="#3a3f3c" fill-opacity="0.34"/><rect x="288" y="18" width="14" height="14" rx="4" fill="#3a3f3c" fill-opacity="0.26"/><rect x="288" y="36" width="14" height="14" rx="4" fill="#3a3f3c" fill-opacity="0.07"/><rect x="288" y="54" width="14" height="14" rx="4" fill="#3a3f3c" fill-opacity="0.15"/><rect x="288" y="72" width="14" height="14" rx="4" fill="#3a3f3c" fill-opacity="0.34"/><rect x="288" y="90" width="14" height="14" rx="4" fill="#3a3f3c" fill-opacity="0.11"/><rect x="288" y="108" width="14" height="14" rx="4" fill="#3a3f3c" fill-opacity="0.34"/><rect x="288" y="126" width="14" height="14" rx="4" fill="#3a3f3c" fill-opacity="0.1"/><rect x="288" y="144" width="14" height="14" rx="4" fill="#3a3f3c" fill-opacity="0.29"/><rect x="288" y="162" width="14" height="14" rx="4" fill="#3a3f3c" fill-opacity="0.22"/><rect x="288" y="180" width="14" height="14" rx="4" fill="#3a3f3c" fill-opacity="0.32"/><rect x="288" y="198" width="14" height="14" rx="4" fill="#3a3f3c" fill-opacity="0.19"/><rect x="288" y="216" width="14" height="14" rx="4" fill="#3a3f3c" fill-opacity="0.48"/><rect x="288" y="234" width="14" height="14" rx="4" fill="#3a3f3c" fill-opacity="0.45"/><rect x="288" y="252" width="14" height="14" rx="4" fill="#3a3f3c" fill-opacity="0.16"/><rect x="288" y="270" width="14" height="14" rx="4" fill="#3a3f3c" fill-opacity="0.48"/><rect x="288" y="288" width="14" height="14" rx="4" fill="#3a3f3c" fill-opacity="0.19"/><rect x="288" y="306" width="14" height="14" rx="4" fill="#3a3f3c" fill-opacity="0.27"/><rect x="288" y="324" width="14" height="14" rx="4" fill="#3a3f3c" fill-opacity="0.24"/><rect x="288" y="342" width="14" height="14" rx="4" fill="#3a3f3c" fill-opacity="0.35"/><rect x="306" y="0" width="14" height="14" rx="4" fill="#3a3f3c" fill-opacity="0.15"/><rect x="306" y="18" width="14" height="14" rx="4" fill="#3a3f3c" fill-opacity="0.2"/><rect x="306" y="36" width="14" height="14" rx="4" fill="#3a3f3c" fill-opacity="0.36"/><rect x="306" y="54" width="14" height="14" rx="4" fill="#3a3f3c" fill-opacity="0.41"/><rect x="306" y="72" width="14" height="14" rx="4" fill="#3a3f3c" fill-opacity="0.28"/><rect x="306" y="90" width="14" height="14" rx="4" fill="#3a3f3c" fill-opacity="0.49"/><rect x="306" y="108" width="14" height="14" rx="4" fill="#3a3f3c" fill-opacity="0.42"/><rect x="306" y="126" width="14" height="14" rx="4" fill="#3a3f3c" fill-opacity="0.15"/><rect x="306" y="144" width="14" height="14" rx="4" fill="#3a3f3c" fill-opacity="0.18"/><rect x="306" y="162" width="14" height="14" rx="4" fill="#34d399" fill-opacity="0.5"/><rect x="306" y="180" width="14" height="14" rx="4" fill="#3a3f3c" fill-opacity="0.27"/><rect x="306" y="198" width="14" height="14" rx="4" fill="#3a3f3c" fill-opacity="0.08"/><rect x="306" y="216" width="14" height="14" rx="4" fill="#3a3f3c" fill-opacity="0.46"/><rect x="306" y="234" width="14" height="14" rx="4" fill="#3a3f3c" fill-opacity="0.06"/><rect x="306" y="252" width="14" height="14" rx="4" fill="#3a3f3c" fill-opacity="0.24"/><rect x="306" y="270" width="14" height="14" rx="4" fill="#3a3f3c" fill-opacity="0.13"/><rect x="306" y="288" width="14" height="14" rx="4" fill="#3a3f3c" fill-opacity="0.37"/><rect x="306" y="306" width="14" height="14" rx="4" fill="#3a3f3c" fill-opacity="0.1"/><rect x="306" y="324" width="14" height="14" rx="4" fill="#3a3f3c" fill-opacity="0.12"/><rect x="306" y="342" width="14" height="14" rx="4" fill="#3a3f3c" fill-opacity="0.34"/><rect x="324" y="0" width="14" height="14" rx="4" fill="#3a3f3c" fill-opacity="0.26"/><rect x="324" y="18" width="14" height="14" rx="4" fill="#3a3f3c" fill-opacity="0.38"/><rect x="324" y="36" width="14" height="14" rx="4" fill="#3a3f3c" fill-opacity="0.49"/><rect x="324" y="54" width="14" height="14" rx="4" fill="#3a3f3c" fill-opacity="0.1"/><rect x="324" y="72" width="14" height="14" rx="4" fill="#3a3f3c" fill-opacity="0.09"/><rect x="324" y="90" width="14" height="14" rx="4" fill="#3a3f3c" fill-opacity="0.45"/><rect x="324" y="108" width="14" height="14" rx="4" fill="#3a3f3c" fill-opacity="0.39"/><rect x="324" y="126" width="14" height="14" rx="4" fill="#3a3f3c" fill-opacity="0.4"/><rect x="324" y="144" width="14" height="14" rx="4" fill="#3a3f3c" fill-opacity="0.41"/><rect x="324" y="162" width="14" height="14" rx="4" fill="#3a3f3c" fill-opacity="0.37"/><rect x="324" y="180" width="14" height="14" rx="4" fill="#3a3f3c" fill-opacity="0.29"/><rect x="324" y="198" width="14" height="14" rx="4" fill="#3a3f3c" fill-opacity="0.2"/><rect x="324" y="216" width="14" height="14" rx="4" fill="#3a3f3c" fill-opacity="0.26"/><rect x="324" y="234" width="14" height="14" rx="4" fill="#3a3f3c" fill-opacity="0.16"/><rect x="324" y="252" width="14" height="14" rx="4" fill="#3a3f3c" fill-opacity="0.23"/><rect x="324" y="270" width="14" height="14" rx="4" fill="#3a3f3c" fill-opacity="0.26"/><rect x="324" y="288" width="14" height="14" rx="4" fill="#3a3f3c" fill-opacity="0.08"/><rect x="324" y="306" width="14" height="14" rx="4" fill="#3a3f3c" fill-opacity="0.08"/><rect x="324" y="324" width="14" height="14" rx="4" fill="#3a3f3c" fill-opacity="0.21"/><rect x="324" y="342" width="14" height="14" rx="4" fill="#3a3f3c" fill-opacity="0.48"/><rect x="342" y="0" width="14" height="14" rx="4" fill="#3a3f3c" fill-opacity="0.39"/><rect x="342" y="18" width="14" height="14" rx="4" fill="#3a3f3c" fill-opacity="0.47"/><rect x="342" y="36" width="14" height="14" rx="4" fill="#3a3f3c" fill-opacity="0.37"/><rect x="342" y="54" width="14" height="14" rx="4" fill="#3a3f3c" fill-opacity="0.41"/><rect x="342" y="72" width="14" height="14" rx="4" fill="#4ade80" fill-opacity="0.36"/><rect x="342" y="90" width="14" height="14" rx="4" fill="#3a3f3c" fill-opacity="0.26"/><rect x="342" y="108" width="14" height="14" rx="4" fill="#34d399" fill-opacity="0.55"/><rect x="342" y="126" width="14" height="14" rx="4" fill="#3a3f3c" fill-opacity="0.42"/><rect x="342" y="144" width="14" height="14" rx="4" fill="#3a3f3c" fill-opacity="0.27"/><rect x="342" y="162" width="14" height="14" rx="4" fill="#3a3f3c" fill-opacity="0.47"/><rect x="342" y="180" width="14" height="14" rx="4" fill="#3a3f3c" fill-opacity="0.36"/><rect x="342" y="198" width="14" height="14" rx="4" fill="#3a3f3c" fill-opacity="0.16"/><rect x="342" y="216" width="14" height="14" rx="4" fill="#3a3f3c" fill-opacity="0.26"/><rect x="342" y="234" width="14" height="14" rx="4" fill="#3a3f3c" fill-opacity="0.32"/><rect x="342" y="252" width="14" height="14" rx="4" fill="#3a3f3c" fill-opacity="0.23"/><rect x="342" y="270" width="14" height="14" rx="4" fill="#3a3f3c" fill-opacity="0.23"/><rect x="342" y="288" width="14" height="14" rx="4" fill="#3a3f3c" fill-opacity="0.27"/><rect x="342" y="306" width="14" height="14" rx="4" fill="#3a3f3c" fill-opacity="0.12"/><rect x="342" y="324" width="14" height="14" rx="4" fill="#3a3f3c" fill-opacity="0.1"/><rect x="342" y="342" width="14" height="14" rx="4" fill="#3a3f3c" fill-opacity="0.33"/></svg>